<svg id="visual" viewBox="0 0 900 600" width="900" height="600" xmlns="http://www.w3.org/2000/svg" xmlns:xlink="http://www.w3.org/1999/xlink" version="1.1"><path d="M0 382L37.5 390.8C75 399.7 150 417.3 225 422.8C300 428.3 375 421.7 450 420.5C525 419.3 600 423.7 675 428.2C750 432.7 825 437.3 862.5 439.7L900 442L900 601L862.5 601C825 601 750 601 675 601C600 601 525 601 450 601C375 601 300 601 225 601C150 601 75 601 37.5 601L0 601Z" fill="#0D0E13" stroke-linecap="round" stroke-linejoin="miter"></path></svg>